<svg width="1117" height="161" viewBox="0 0 1117 161" fill="none" xmlns="http://www.w3.org/2000/svg">
<path fill-rule="evenodd" clip-rule="evenodd" d="M5.72407 52.8864L57.2241 8.22266C59.1038 6.59245 61.8962 6.59245 63.7759 8.22266L115.276 52.8864C116.371 53.8361 117 55.2142 117 56.6637V116.382C117 119.143 114.761 121.382 112 121.382H78V87.3816H45V121.382H9C6.23858 121.382 4 119.143 4 116.382V56.6637C4 55.2142 4.62903 53.8361 5.72407 52.8864Z" fill="#1BC54A"/>
<path d="M57.2241 8.22266L54.6033 5.20078V5.20078L57.2241 8.22266ZM5.72407 52.8864L3.10333 49.8645H3.10333L5.72407 52.8864ZM63.7759 8.22266L61.1552 11.2445L61.1552 11.2445L63.7759 8.22266ZM115.276 52.8864L117.897 49.8645L115.276 52.8864ZM78 121.382H74V125.382H78V121.382ZM78 87.3816H82V83.3816H78V87.3816ZM45 87.3816V83.3816H41V87.3816H45ZM45 121.382V125.382H49V121.382H45ZM54.6033 5.20078L3.10333 49.8645L8.34482 55.9082L59.8448 11.2445L54.6033 5.20078ZM66.3967 5.20079C63.0131 2.26641 57.9869 2.2664 54.6033 5.20078L59.8448 11.2445C60.2208 10.9185 60.7792 10.9185 61.1552 11.2445L66.3967 5.20079ZM117.897 49.8645L66.3967 5.20079L61.1552 11.2445L112.655 55.9082L117.897 49.8645ZM121 56.6637C121 54.0546 119.868 51.5739 117.897 49.8645L112.655 55.9082C112.874 56.0982 113 56.3738 113 56.6637H121ZM121 116.382V56.6637H113V116.382H121ZM112 125.382C116.971 125.382 121 121.352 121 116.382H113C113 116.934 112.552 117.382 112 117.382V125.382ZM78 125.382H112V117.382H78V125.382ZM74 87.3816V121.382H82V87.3816H74ZM45 91.3816H78V83.3816H45V91.3816ZM49 121.382V87.3816H41V121.382H49ZM9 125.382H45V117.382H9V125.382ZM0 116.382C0 121.352 4.02944 125.382 9 125.382V117.382C8.44772 117.382 8 116.934 8 116.382H0ZM0 56.6637V116.382H8V56.6637H0ZM3.10333 49.8645C1.13225 51.5739 0 54.0546 0 56.6637H8C8 56.3738 8.12581 56.0982 8.34482 55.9082L3.10333 49.8645Z" fill="#1BC54A"/>
<path d="M205.906 32.1V121H224.067V85.567H227.242L251.626 121H274.486C268.39 112.745 255.182 94.584 247.308 83.535C257.214 80.233 266.612 72.613 266.612 58.77C266.612 39.466 248.451 32.1 234.1 32.1H205.906ZM224.067 47.467H233.592C241.72 47.467 247.181 52.166 247.181 59.151C247.181 66.898 240.323 70.2 231.179 70.2H224.067V47.467ZM341.495 92.044C342.003 89.377 342.384 86.202 342.384 83.535C342.384 65.755 328.668 52.674 310.126 52.674C290.949 52.674 276.217 68.168 276.217 88.361C276.217 108.427 289.806 122.524 309.999 122.524C324.35 122.524 332.859 117.19 340.479 106.141L328.668 98.14C324.35 104.49 319.905 108.046 311.269 108.046C301.744 108.046 295.775 101.188 294.505 92.044H341.495ZM295.394 79.725C297.299 72.232 301.998 66.771 310.634 66.771C318 66.771 323.588 71.724 323.969 79.725H295.394ZM355.451 54.198V121H373.485V76.677C376.787 71.216 382.629 68.168 387.963 68.168C391.9 68.168 395.202 69.565 396.853 72.867C398.758 76.677 398.885 82.265 398.885 87.218V121H416.919V86.329C416.919 76.804 416.157 68.168 410.95 61.437C406.759 56.103 400.409 52.674 393.17 52.674C385.804 52.674 377.803 55.849 372.469 63.342L371.072 54.198H355.451ZM469.772 69.184V54.198H452.754V39.466H437.514L434.72 54.198H426.719V69.184H434.72V96.997C434.72 100.934 434.974 104.871 435.99 108.173C438.403 116.809 445.388 122.524 455.802 122.524C461.009 122.524 467.359 121.127 471.677 118.587L466.089 105.252C463.803 106.395 461.644 107.157 458.85 107.157C455.04 107.157 453.516 104.744 453.008 100.807C452.754 98.902 452.754 97.124 452.754 95.092V69.184H469.772ZM542.661 92.044C543.169 89.377 543.55 86.202 543.55 83.535C543.55 65.755 529.834 52.674 511.292 52.674C492.115 52.674 477.383 68.168 477.383 88.361C477.383 108.427 490.972 122.524 511.165 122.524C525.516 122.524 534.025 117.19 541.645 106.141L529.834 98.14C525.516 104.49 521.071 108.046 512.435 108.046C502.91 108.046 496.941 101.188 495.671 92.044H542.661ZM496.56 79.725C498.465 72.232 503.164 66.771 511.8 66.771C519.166 66.771 524.754 71.724 525.135 79.725H496.56ZM572.238 54.198H556.617V121H574.651V75.788C577.318 71.343 582.017 68.422 587.224 68.422C589.51 68.422 591.669 68.93 593.574 69.946L597.892 54.198C595.479 53.309 592.558 52.674 589.256 52.674C582.652 52.674 577.445 56.865 573.635 63.088L572.238 54.198ZM650.346 61.437C644.123 55.595 636.122 52.674 627.232 52.674C615.04 52.674 603.356 59.532 603.356 73.121C603.356 84.805 612.119 89.377 620.12 92.806C626.724 95.727 632.82 97.759 632.82 102.458C632.82 106.522 627.994 108.3 624.311 108.3C617.834 108.3 613.643 105.379 608.563 100.426L598.276 111.094C605.642 118.46 614.786 122.524 625.2 122.524C638.154 122.524 650.854 115.793 650.854 101.061C650.854 88.361 639.932 84.043 631.296 80.487C625.708 78.201 620.755 76.042 620.755 71.851C620.755 68.676 623.803 66.771 627.232 66.771C632.312 66.771 637.011 69.311 640.44 72.359L650.346 61.437ZM698.155 32.1V121H716.316V85.567H719.491L743.875 121H766.735C760.639 112.745 747.431 94.584 739.557 83.535C749.463 80.233 758.861 72.613 758.861 58.77C758.861 39.466 740.7 32.1 726.349 32.1H698.155ZM716.316 47.467H725.841C733.969 47.467 739.43 52.166 739.43 59.151C739.43 66.898 732.572 70.2 723.428 70.2H716.316V47.467ZM833.744 92.044C834.252 89.377 834.633 86.202 834.633 83.535C834.633 65.755 820.917 52.674 802.375 52.674C783.198 52.674 768.466 68.168 768.466 88.361C768.466 108.427 782.055 122.524 802.248 122.524C816.599 122.524 825.108 117.19 832.728 106.141L820.917 98.14C816.599 104.49 812.154 108.046 803.518 108.046C793.993 108.046 788.024 101.188 786.754 92.044H833.744ZM787.643 79.725C789.548 72.232 794.247 66.771 802.883 66.771C810.249 66.771 815.837 71.724 816.218 79.725H787.643ZM886.817 54.198L873.228 95.346H872.974L859.512 54.198H839.573L864.719 121H879.451L906.883 54.198H886.817ZM934.195 121V54.198H916.161V121H934.195ZM934.195 44.927V29.56H916.161V44.927H934.195ZM1012.46 92.044C1012.97 89.377 1013.35 86.202 1013.35 83.535C1013.35 65.755 999.635 52.674 981.093 52.674C961.916 52.674 947.184 68.168 947.184 88.361C947.184 108.427 960.773 122.524 980.966 122.524C995.317 122.524 1003.83 117.19 1011.45 106.141L999.635 98.14C995.317 104.49 990.872 108.046 982.236 108.046C972.711 108.046 966.742 101.188 965.472 92.044H1012.46ZM966.361 79.725C968.266 72.232 972.965 66.771 981.601 66.771C988.967 66.771 994.555 71.724 994.936 79.725H966.361ZM1075.06 54.198H1059.18L1047.63 95.6H1047.37L1037.47 54.198H1018.29L1036.58 121H1056.01L1066.68 82.773H1066.93L1077.47 121H1096.52L1115.7 54.198H1096.9L1086.36 95.473H1085.98L1075.06 54.198Z" fill="#1BC54A"/>
</svg>
